<?xml version="1.0" encoding="utf-8"?>
<!-- Generator: Adobe Illustrator 27.5.0, SVG Export Plug-In . SVG Version: 6.00 Build 0)  -->
<svg version="1.1" id="BASE" xmlns="http://www.w3.org/2000/svg" xmlns:xlink="http://www.w3.org/1999/xlink" x="0px" y="0px"
	 viewBox="0 0 2122 2122" style="enable-background:new 0 0 2122 2122;" xml:space="preserve">
<g>
	<g>
		<path style="fill:#57852F;" d="M1924.332,1233.47c-55.21-102.882-148.038-185.036-256.867-227.333
			c2.172,3.937,4.082,7.816,5.746,11.64c-0.062,0.352,0.018,0.742,0.311,1.095c0.108,0.132,0.218,0.264,0.326,0.396
			c54.661,130.164-179.136,194.874-258.818,235.871c-83.45,42.936-160.774,98.693-199.041,187.489
			c-12.551,29.126-20.846,59.87-23.61,91.7c-8.273,95.288,42.445,198.343,131.684,232.761c19.671,7.587,40.609,11.836,61.164,16.89
			c-12.754,7.697-26.525,13.572-41.432,15.817c-1.448,0.218-2.964,0.43-4.158,1.275c-0.954,0.673-1.606,1.685-2.195,2.693
			c-1.207,2.065-2.24,4.228-3.096,6.459c-3.349,8.725-3.982,18.497-1.658,27.556c2.92,11.375,10.47,21.49,20.547,27.522
			c2.669,1.597,5.644,2.948,8.75,2.823c2.777-0.112,5.358-1.388,7.818-2.682c25.731-13.526,53.117-33.073,73.881-53.49
			c1.351-1.329,2.681-2.681,3.976-4.055c29.927,19.103,51.764,49.157,80.896,69.696c53.36,37.618,127.308,38.391,186.805,11.512
			C1960.425,1778.389,2047.618,1463.207,1924.332,1233.47z"/>
		<path style="fill:#57852F;" d="M1354.718,842.441c69.617-65.587,100.392-176.247,56.727-261.344
			c-9.625-18.758-22.417-35.868-34.39-53.326c14.639,2.75,28.825,7.534,41.443,15.785c1.225,0.801,2.497,1.652,3.952,1.818
			c1.159,0.132,2.32-0.188,3.43-0.547c2.276-0.737,4.486-1.663,6.61-2.757c8.308-4.281,15.287-11.15,19.584-19.457
			c5.396-10.431,6.496-23.005,2.994-34.214c-0.927-2.968-2.247-5.958-4.648-7.933c-2.147-1.765-4.923-2.531-7.619-3.204
			c-28.204-7.04-61.653-10.689-90.739-9.282c-1.893,0.092-3.786,0.216-5.666,0.379c-9.61-34.18-5.893-71.144-13.954-105.864
			c-14.765-63.595-69.424-113.408-131.711-132.968c-256.562-80.562-531.472,96.544-592.45,350.04
			c-27.307,113.521-12.748,236.624,40.288,340.643c0.995-4.357,2.145-8.499,3.438-12.439c0.295-0.2,0.505-0.539,0.524-1.022
			c0.007-0.202,0.016-0.403,0.024-0.605c45.897-133.484,263.404-26.106,350.148-3.641c90.851,23.528,185.668,33.41,273.341-7.363
			C1304.804,881.765,1331.462,864.349,1354.718,842.441z"/>
		<path style="fill:#57852F;" d="M1003.839,1697.276c-0.17,0.086-0.342,0.172-0.512,0.258
			c-138.988,24.649-150.652-217.641-173.105-304.389c-23.516-90.854-60.887-178.553-139.083-235.426
			c-25.649-18.654-53.815-33.513-84.255-43.214c-91.131-29.043-202.822-2.251-256.037,77.225
			c-11.73,17.518-20.483,37.007-29.939,55.946c-4.7-14.134-7.401-28.86-6.31-43.897c0.106-1.46,0.233-2.985-0.329-4.338
			c-0.447-1.078-1.29-1.937-2.142-2.733c-1.749-1.632-3.631-3.116-5.619-4.442c-7.775-5.186-17.168-7.955-26.516-7.681
			c-11.739,0.344-23.268,5.483-31.37,13.985c-2.145,2.251-4.118,4.856-4.68,7.915c-0.502,2.733,0.175,5.532,0.895,8.216
			c7.531,28.077,20.571,59.093,35.918,83.842c0.999,1.61,2.026,3.205,3.08,4.77c-25.22,24.99-59.347,39.676-85.792,63.574
			c-48.44,43.771-65.47,115.736-52.345,179.69c54.063,263.422,342.324,417.848,593.564,348.15
			c112.51-31.213,213.081-103.682,278.295-200.533c-4.302,1.248-8.491,2.254-12.572,3.035
			C1004.663,1697.077,1004.263,1697.061,1003.839,1697.276z"/>
	</g>
	<path style="fill:#5D8F33;" d="M1898.841,1264.106c-20.538-43.888-47.64-84.769-80.378-120.511
		c-20.353-22.219-76.617-87.503-108.12-87.637c-10.651-13.866-22.378-26.894-35.005-38.905c-0.877-0.835-1.971-0.179-2.128,0.723
		c-0.062,0.352,0.018,0.742,0.311,1.095c0.108,0.132,0.218,0.264,0.326,0.396c12.254,14.842,23.927,30.253,34.588,46.255
		c-14.441,73.431-72.586,133.594-139.903,167.338c-74.365,37.276-145.913,63.208-197.584,132.274
		c4.716-10.292-3.393-25.342-15.28-28.626c-13.81-3.816-28.27,3.26-39.729,11.859c-72.64,54.516-109.996,178.408-78.466,269.816
		c11.167,32.374,30.976,60.673,60.917,80.372c32.212,21.193,73.603,26.045,111.198,17.481c8.394-1.912,16.722-4.395,24.957-7.369
		c3.289,12.732,6.277,25.585,9.082,38.54c1.481,6.844,2.911,13.717,4.308,20.616c-2.187,3.294,1.437,8.555,5.068,6.602
		c1.542-0.186,3.013-1.114,3.519-2.649c2.037-1.586,4.069-3.187,6.095-4.801c17.708-14.112,34.924-29.267,51.638-45.112
		c-12.007,22.445-18.589,47.033-13.743,73.537c8.92,44.603,53.116,76.121,98.297,81.366
		c168.481,19.56,309.848-193.538,337.283-335.541C1954.125,1447.889,1938.97,1349.851,1898.841,1264.106z M1669.264,1490.891
		c0.116,11.06-0.22,22.174-0.896,33.33c-13.04,19.805-27.006,39.011-41.69,57.653c1.296-10.565,1.442-21.541,0.673-32.672
		C1642.149,1530.42,1656.205,1510.963,1669.264,1490.891z M1676.848,1478.981c18.189-29.194,34.212-59.635,47.306-91.152
		c0.075,0.891,0.148,1.781,0.216,2.674c0.776,10.454-0.171,20.977-0.278,31.424c-3.617,8.366-7.402,16.602-11.33,24.682
		c-11.195,23.024-23.764,45.297-37.446,66.867C1676.697,1502.163,1677.19,1490.619,1676.848,1478.981z M1752.479,1339.163
		c-5.078,20.128-11.452,39.958-18.811,59.234c0.055-9.562-0.755-19.408-2.189-29.144c8.575-22.964,15.558-46.468,20.666-70.445
		c0.383,4.208,0.675,8.429,0.872,12.663C1753.44,1320.553,1752.583,1329.936,1752.479,1339.163z M1764.104,1272.145
		c-0.697,7.697-1.626,15.392-2.771,23.071c-0.847-9.306-2.183-18.516-3.716-27.224c2.146-15.105,3.53-30.38,4.077-45.812
		C1763.694,1239.003,1764.453,1255.662,1764.104,1272.145z M1538.026,1645.083c15.722-13.537,30.29-27.863,43.36-42.051
		c11.758-12.763,23.253-25.921,34.384-39.449c0.316,10.061,0.533,20.119,1.458,30.092c-7.451,9.153-15.068,18.171-22.827,27.054
		c-19.243,22.033-39.756,42.663-60.622,62.906C1536.954,1671.737,1538.01,1658.319,1538.026,1645.083z M1457.385,1757.949
		c-0.412,0.421-0.822,0.843-1.234,1.265c-0.067-0.997-0.139-1.996-0.215-2.994c-1.329-17.496-4.073-35.172-8.095-52.807
		c27.493-11.795,53.751-28.763,77.703-47.957c-0.931,11.771-1.95,23.504-1.706,35.311c0.016,0.777,0.212,1.427,0.529,1.955
		C1501.912,1714.317,1479.21,1735.643,1457.385,1757.949z"/>
	<path style="fill:#5D8F33;" d="M1376.906,749.849c13.223-31.589,17.286-65.892,8.063-100.526
		c-9.923-37.259-37.575-68.439-71.327-87.081c-7.547-4.168-15.426-7.866-23.563-11.134c6.038-11.69,12.38-23.263,18.92-34.788
		c3.465-6.107,6.987-12.201,10.55-18.291c3.884-1.057,4.212-6.249,0.926-7.937c-1.278-1.267-3.229-1.813-4.806-0.72
		c-2.548-0.176-5.1-0.337-7.656-0.484c-22.496-1.292-45.324-1.476-68.246-0.807c23.765-8.759,44.913-22.699,58.879-45.593
		c23.042-39.218,11.052-92.16-19.166-126.157c-112.681-126.771-360.043-61.901-475.059,25.782
		C728.82,399.748,674.851,482.986,647.7,573.679c-13.897,46.42-20.896,94.967-20.266,143.432
		c0.391,30.128-1.098,116.294,22.316,137.373c-1.281,17.427-1.204,34.935,0.212,52.263c0.095,1.162,1.324,1.517,2.047,1.022
		c0.295-0.2,0.505-0.539,0.524-1.022c0.007-0.202,0.016-0.403,0.024-0.605c0.745-19.22,2.294-38.488,4.991-57.527
		c59.664-45.168,143.103-51.342,215.794-31.698c80.304,21.702,150.953,49.992,235.49,32.864
		c-10.372,4.539-14.341,21.168-7.659,31.532c7.764,12.042,23.263,16.391,37.539,17.605
		C1229.207,906.609,1339.569,839.044,1376.906,749.849z M722.112,696.277c9.605-13.735,20.011-26.542,31.111-38.499
		c5.881-5.498,11.947-10.828,18.175-15.986c-5.644,7.574-10.845,15.372-15.523,22.834
		C744.137,674.52,732.861,685.057,722.112,696.277z M785.603,641.602c7.626-9.041,15.435-17.889,22.685-27.277
		c16.872-11.321,34.443-21.603,52.313-30.871c-6.322,7.069-12.188,14.889-17.511,22.939
		C823.165,616.862,803.937,628.562,785.603,641.602z M864.2,595.875c6.483-7.928,13.186-15.715,19.728-23.887
		c2.881-1.341,5.765-2.656,8.651-3.945c28.531-12.747,58.009-23.175,88.053-31.695c-8.628,7.558-16.731,15.88-24.259,24.827
		C924.725,570.449,893.8,581.904,864.2,595.875z M992.935,532.973c22.947-6.086,46.193-11.103,69.568-15.228
		c-7.929,7.018-15.269,15.122-22.025,23.914c-23.694,4.175-47.281,9.36-70.53,15.682
		C977.266,548.978,984.959,540.879,992.935,532.973z M1077.35,515.246c6.93-1.112,13.87-2.15,20.813-3.117
		c33.675-4.69,67.344-6.765,101.029-8.206c-10.106,6.828-19.552,16.246-28.055,25.753c-20.938-0.397-41.542,0.595-60.917,2.494
		c-16.6,1.628-33.262,3.689-49.903,6.229C1065.988,530.831,1071.708,523.172,1077.35,515.246z M1211.428,505.181
		c0.486-0.567,0.776-1.179,0.908-1.793c31.166-1.213,62.344-2.106,93.553-4.248c0.599-0.041,1.197-0.082,1.797-0.124
		c-0.628,0.805-1.25,1.613-1.87,2.425c-10.646,13.94-20.358,28.944-29.092,44.76c-28.6-9.587-59.764-14.414-90.664-16.002
		C1194.782,522.046,1203.729,514.154,1211.428,505.181z"/>
	<path style="fill:#5D8F33;" d="M1004.985,1697.228c-0.323-0.152-0.722-0.167-1.146,0.047c-0.17,0.086-0.342,0.172-0.512,0.258
		c-17.218,8.694-34.837,16.671-52.79,23.523c-68.411-30.266-114.276-100.203-132.368-173.27
		c-19.995-80.745-29.542-156.247-85.544-221.852c9.002,6.865,25.469,2.268,31.289-8.605c6.761-12.631,3.042-28.294-2.825-41.365
		c-37.192-82.857-149.823-146.566-245.929-135.927c-34.037,3.768-66.002,16.861-91.809,41.732
		c-27.762,26.757-41.606,66.066-41.527,104.623c0.018,8.603,0.605,17.266,1.693,25.948c-13.142,0.409-26.335,0.497-39.586,0.384
		c-7.012-0.06-14.04-0.177-21.085-0.333c-2.739-2.957-7.259-0.741-7.376,2.833c-0.543,1.77-0.079,3.854,1.659,4.749
		c1.084,2.316,2.183,4.63,3.297,6.94c9.807,20.328,20.767,40.412,32.52,60.161c-19.217-16.581-41.705-28.353-68.552-29.456
		c-45.472-1.116-85.944,35.06-101.007,77.979c-56.163,160.043,120.596,344.846,253.078,402.862
		c87.079,38.134,186.049,44.929,278.523,24.658c47.332-10.376,93.176-27.815,135.246-51.884
		c26.158-14.964,102.244-55.49,109.288-86.194c15.858-7.328,31.135-15.891,45.616-25.545
		C1006.122,1698.84,1005.794,1697.607,1004.985,1697.228z M713.49,1712.411c-5.239-0.688-10.466-1.519-15.675-2.497
		c-7.703-1.447-15.362-3.868-23.056-5.796c-18.781-9.445-36.986-20.129-54.461-31.726c9.299,2.148,19.064,3.517,28.855,4.26
		C669.718,1690.11,691.163,1702.127,713.49,1712.411z M738.74,1730.392c-7.867-2.502-15.669-5.257-23.401-8.241
		c9.135,1.2,18.268,1.924,26.935,2.347c14.264,5.42,28.862,10.132,43.798,14.063C769.901,1736.88,754.129,1734.118,738.74,1730.392z
		 M454.245,1478.851c9.877,14.301,20.199,28.43,30.964,42.287c-9.903-1.906-19.773-3.932-29.732-5.257
		c-7.756-9.877-15.32-19.904-22.7-30.055c-16.77-23.065-31.982-47.01-46.752-71.205c10.932,5.7,23.821,9.62,36.661,12.521
		C432.452,1445.516,443.251,1462.932,454.245,1478.851z M464.885,1527.667c10.044,3.604,20.729,6.175,31.763,7.884
		c15.039,18.538,30.897,36.501,47.572,53.63c-10.783-2.296-21.529-5.044-32.259-8.149
		C495.507,1563.948,479.842,1546.097,464.885,1527.667z M554.236,1599.267c24.489,24.184,50.673,46.526,78.555,66.245
		c-0.844-0.118-1.687-0.24-2.53-0.367c-10.422-1.575-20.537-4.822-30.766-7.229c-9.751-7.104-19.237-14.469-28.427-22.033
		c-17.497-14.4-34.191-29.693-50.155-45.715C531.657,1594.014,542.812,1597.039,554.236,1599.267z M330.414,1323.795
		c-0.327-0.502-0.653-1.004-0.978-1.506c1.004,0.157,2.01,0.308,3.017,0.455c17.348,2.541,35.182,3.747,53.258,3.705
		c5.463,29.484,16.269,58.902,29.762,86.548c-11.261-3.536-22.451-7.194-33.976-9.551c-0.806-0.165-1.541-0.097-2.178,0.134
		C363.187,1376.893,347.381,1350.019,330.414,1323.795z"/>
	<path style="fill:#6B9B3C;" d="M1236.113,836.879c49.595-18.694,87.859-56.586,108.45-106.813
		c17.096-41.701,13.393-93.886-17.449-126.748c-13.04-13.894-31.22-22.687-50.086-25.629c4.148-8.946,8.514-17.797,13.051-26.58
		c6.038-11.69,12.38-23.263,18.92-34.788c3.465-6.107,6.987-12.201,10.55-18.291c3.884-1.057,4.212-6.249,0.926-7.937
		c-1.278-1.267-3.229-1.813-4.806-0.72c-2.548-0.176-5.1-0.337-7.656-0.484c-22.496-1.292-45.324-1.476-68.246-0.807
		c-4.708,0.138-9.419,0.311-14.131,0.519c1.313-0.102,2.598-1.096,2.728-2.733c1.012-12.754-0.375-25.965-3.48-39.12
		c11.4,2.038,22.739,1.644,33.335-3.187c17.021-7.759,27.752-26.1,29.482-44.726c1.728-18.627-4.534-37.305-14.236-53.299
		c-31.896-52.577-102.219-79.98-161.966-70.054c-7.329,1.218-15.166,3.312-19.724,9.179c-0.303,0.39-0.58,0.802-0.831,1.229
		c-4.34-1.714-8.749-3.223-13.224-4.502c-3.805-1.087-6.154,4.416-2.695,6.396c4.906,2.808,9.751,5.626,14.527,8.481
		c0.617,2.392,1.901,4.499,3.853,5.805c-23.271-10.538-48.654-16.395-74.19-17.103c-16.691-0.463-36.772,3.608-42.746,19.199
		c-1.421,3.709-1.823,7.298-1.492,10.767c-10.872-6.216-22.307-11.23-34.197-14.628c-3.805-1.088-6.154,4.416-2.695,6.396
		c16.338,9.35,32.002,18.818,46.66,29.383c2.58,3.495,5.305,6.82,7.698,9.974c-21.12-3.527-41.514-19.009-63.437-24.003
		c-23.557-5.366-49.538-4.267-70.238,8.197c-12.557,7.56-23.049,19.965-24.644,34.535c-1.597,14.57,8,30.582,22.471,32.902
		c-27.706-4.441-52.673-14.785-78.981,2.554c-18.451,12.16-26.278,31.419-18.976,52.45c17.428,50.202,93.162,68.305,139.128,72.224
		c9.687,0.826,20.477,0.743,27.76-5.697c13.492-11.932,4.904-33.926-4.457-49.313c18.46,10.974,37.31,22.106,58.254,26.858
		c3.065,0.695,6.19,1.232,9.343,1.6c6.359,6.328,12.738,12.815,19.333,19.371c-32.426,7.805-64.323,17.664-95.267,30.069
		c-32.388-23.633-77.557-32.933-122.578-30.354c-18.632-10.914-39.454-18.1-60.873-20.87c-8.48-1.096-18.638-0.8-23.542,6.204
		c-6.365,9.093,1.054,21.224,8.198,29.72c-16.543-2.689-34.2,7.228-40.852,22.532c-4.603,3.206-8.966,6.595-13.048,10.166
		c-3.099,2.711,0.85,7.278,4.24,5.496c2-1.052,3.998-2.093,5.99-3.124c-0.541,13.989,6.832,28.358,19.141,35.245
		c-11.671-6.53-35.215,28.037-31.237,52.263c-6.027,6.497-11.265,13.271-15.509,20.164c-1.96,3.184,2.34,6.068,4.946,3.817
		c5.046-4.357,10.058-8.664,15.105-12.864c2.271,3.047,5.394,5.62,9.526,7.515c29.528,13.539,51.102-18.303,46.595-44.622
		c1.205-0.545,2.416-1.082,3.641-1.603c6.284-2.668,12.6-4.79,18.946-6.569c8.428-0.44,16.784-2.313,24.562-5.581
		c10.821-2.077,21.709-3.916,32.643-6.485c-37.232,25.854-71.148,56.879-96.507,93.229c-31.204,44.728-48.382,98.166-52.37,152.396
		c-1.281,17.427-1.204,34.935,0.212,52.263c0.095,1.162,1.324,1.517,2.047,1.022c0.295-0.2,0.505-0.539,0.524-1.022
		c0.007-0.202,0.016-0.403,0.024-0.605c0.745-19.22,2.294-38.488,4.991-57.527c7.901-55.807,25.648-109.651,61.845-154.579
		c10.334-12.826,21.687-24.906,33.829-36.259c5.881-5.498,11.947-10.828,18.175-15.986c-5.644,7.574-10.845,15.372-15.523,22.834
		c-2.619,4.178-5.077,8.252-7.353,12.122c-21.418,36.398-40.218,85.754-36.086,128.6c0.422,4.374,7.178,6.097,8.248,1.117
		c9.799-45.621,14.995-86.207,38.267-127.987c7.576-13.602,16.968-25.394,26.654-36.875c7.626-9.041,15.435-17.889,22.685-27.277
		c16.872-11.321,34.443-21.603,52.313-30.871c-6.322,7.069-12.188,14.889-17.511,22.939c-8.701,13.16-15.958,26.936-21.403,39.062
		c-4.586,10.213-8.804,21.768-12.244,34.012c-2.124,3.027-4.184,6.099-6.171,9.218c-16.857,26.47-27.353,64.413-5.433,86.87
		c2.867,2.938,6.1,5.342,9.592,7.253c0.436,1.21,0.896,2.407,1.379,3.589c1.514,3.704,7.021,3.973,8.073,0.246
		c14.968,4.234,32.501,1.493,46.488-6.106c11.437-6.213,21.055-14.937,29.75-24.682c0.485,5.818,1.194,11.583,2.134,17.274
		c0.492,2.98,5.429,2.288,5.27-0.713c-0.427-8.13-0.727-16.231-0.828-24.3c2.951-3.627,5.814-7.336,8.63-11.058
		c-10.264,17.476-4.292,43.076,12.104,55.992c17.69,13.934,43.307,14.4,64.097,5.562c1.851,6.909,4.04,13.703,6.587,20.346
		c0.921,2.399,4.23,1.47,3.825-1.054c-1.22-7.615-2.331-15.196-3.306-22.748c18.968-10.348,33.717-27.426,45.581-45.611
		c-17.763,27.23-5.136,56.844,30.308,65.452c8.927,2.168,18.146,2.26,27.212,0.818c1.78,5.322,3.827,10.485,6.163,15.456
		c1.335,2.838,6.471,1.547,6.087-1.648c-0.647-5.368-1.486-10.682-2.411-15.971c6.55-1.833,12.927-4.389,18.956-7.456
		c17.205-8.751,32.062-21.408,46.74-33.943c-6.415,12.73-12.832,25.86-14.302,40.039c-5.089,49.092,42.139,37.644,72.277,27.391
		c1.099,4.193,8.245,3.161,7.96-1.343C1236.173,837.851,1236.143,837.365,1236.113,836.879z M1095.485,452.268
		c16.824,8.773,34.786,17.795,53.707,16.361c18.919-1.433,38.002-17.982,34.726-36.672c8.388,3.984,17.272,7.982,26.305,10.979
		c4.387,14.155,8.265,28.689,12.641,43.674c0.429,1.472,1.609,2.077,2.767,1.989c-45.096,1.986-90.369,7.074-134.03,13.367
		c0.963-18.595-3.008-38.071-9.86-56.865C1086.322,447.491,1090.905,449.88,1095.485,452.268z M1004.658,498.715
		c13.098-1.007,25.731-5.327,35.568-13.895c16.196-14.103,21.306-41.307,7.28-57.569c5.606,2.923,11.212,5.846,16.818,8.77
		c8.421,21.39,14.097,43.595,20.836,66.886c-23.72,3.515-47.341,7.888-70.705,13.306
		C1011.687,510.195,1008.399,504.357,1004.658,498.715z M806.337,603.61c-0.274-0.914-0.952-1.706-2.027-2.003
		c-5.52-1.528-11.232-2.5-17.074-2.972c0.257-0.465,0.5-0.937,0.728-1.421c3.369-7.159,2.542-16.697-3.524-21.778
		c12.073-2.625,26.247,4.83,36.278-2.384c6.678-4.803,8.135-14.625,5.318-22.355c-2.816-7.729-8.977-13.731-15.339-18.948
		c-0.692-0.567-1.387-1.128-2.087-1.683c33.493,1.582,63.166,11.303,95.575,21.241c-10.866,4.549-21.609,9.422-32.208,14.641
		C849.781,576.877,827.589,589.422,806.337,603.61z M869.775,618.915c-15.089,10.659-28.973,23.014-41.346,36.733
		c1.961-5.135,4.095-10.207,6.398-15.204c7.855-17.037,18.289-31.011,29.372-44.568c6.483-7.928,13.186-15.715,19.728-23.887
		c2.881-1.341,5.765-2.656,8.651-3.945c28.531-12.747,58.009-23.175,88.053-31.695c-8.628,7.558-16.731,15.88-24.259,24.827
		c-11.469,13.631-21.605,28.71-30.235,44.739C909.279,598.449,886.139,607.355,869.775,618.915z M935.277,612.338
		c-0.978-1.019-2.004-1.941-3.066-2.775c10.717-18.742,23.52-35.979,37.735-52.221c7.319-8.364,15.012-16.463,22.988-24.368
		c22.947-6.086,46.193-11.103,69.568-15.228c-7.929,7.018-15.269,15.122-22.025,23.914c-6.136,7.986-11.791,16.539-16.97,25.36
		C989.801,570.21,957.427,586.689,935.277,612.338z M1063.165,593.505c4.638-6.731,1.176-16.657-5.435-21.467
		c-5.182-3.772-11.624-5.107-18.105-5.471c6.659-9.48,13.638-18.755,20.693-28.168c5.671-7.568,11.391-15.227,17.033-23.154
		c6.93-1.112,13.87-2.15,20.813-3.117c33.675-4.69,67.344-6.765,101.029-8.206c-10.106,6.828-19.552,16.246-28.055,25.753
		c-4.782,5.347-9.264,10.721-13.399,15.68c-0.328,0.392-0.651,0.788-0.976,1.182c-1.868,0.329-3.722,0.698-5.551,1.1
		C1118.512,554.827,1087.795,570.829,1063.165,593.505z M1204.341,553.645c-9.462-6.885-21.135-9.036-33-8.673
		c4.637-5.19,9.639-10.026,14.719-14.773c8.722-8.153,17.67-16.045,25.369-25.018c0.486-0.567,0.776-1.179,0.908-1.793
		c31.166-1.213,62.344-2.106,93.553-4.248c0.599-0.041,1.197-0.082,1.797-0.124c-0.628,0.805-1.25,1.613-1.87,2.425
		c-10.646,13.94-20.358,28.944-29.092,44.76c-5.435,9.84-10.491,19.996-15.16,30.402c-17.562,0.277-34.67,5.779-47.756,17.109
		C1221.21,581.762,1216.558,562.534,1204.341,553.645z"/>
	<path style="fill:#6B9B3C;" d="M1004.985,1697.228c-0.323-0.152-0.722-0.167-1.146,0.047c-0.17,0.086-0.342,0.172-0.512,0.258
		c-17.218,8.694-34.837,16.671-52.79,23.523c-55.396,21.141-113.969,31.572-173.725,19.31c-12.826-2.632-25.528-5.985-38.071-9.974
		c-7.867-2.502-15.669-5.257-23.401-8.241c9.135,1.2,18.268,1.924,26.935,2.347c5.979,0.292,11.738,0.441,17.122,0.504
		c41.186,0.484,92.212-7.12,126.822-30.956c3.731-2.569,1.572-9.136-3.236-7.675c-43.723,13.281-80.867,28.318-127.736,28.599
		c-13.988,0.084-27.922-0.741-41.756-2.56c-5.239-0.688-10.466-1.519-15.675-2.497c-7.703-1.447-15.362-3.868-23.056-5.796
		c-18.781-9.445-36.986-20.129-54.461-31.726c9.299,2.148,19.064,3.517,28.855,4.26c19.904,1.51,39.909,0.436,56.309-1.939
		c7.235-1.048,14.964-2.514,22.917-4.415c3.882,0.42,7.774,0.75,11.672,0.986c31.323,1.893,69.593-7.342,78.593-37.405
		c1.17-3.913,1.706-7.886,1.687-11.847c0.86-0.998,1.693-2.01,2.497-3.036c2.511-3.205,0.03-7.918-3.724-7.115
		c-3.553-15.155-14.464-29.169-27.905-37.718c-10.983-6.985-23.278-11.161-36.018-14.035c4.859-3.253,9.56-6.676,14.085-10.268
		c2.396-1.902-0.702-5.812-3.251-4.214c-6.836,4.284-13.725,8.479-20.691,12.506c-4.638-0.828-9.304-1.537-13.961-2.198
		c20.263,0.494,39.749-17.151,43.085-37.756c3.599-22.233-8.428-44.859-26.248-58.748c5.153-4.97,10.04-10.183,14.614-15.641
		c1.665-1.988-0.811-4.372-2.805-2.805c-6.051,4.759-12.118,9.416-18.225,13.946c-18.262-11.586-40.37-16.2-62.047-17.75
		c32.43,2.318,52.194-23.094,42.521-58.263c-2.44-8.872-6.844-16.989-12.516-24.225c3.82-4.133,7.356-8.423,10.56-12.872
		c1.875-2.603-1.864-6.354-4.469-4.469c-4.347,3.148-8.54,6.478-12.67,9.885c-4.795-4.862-10.148-9.219-15.779-13.018
		c-16.001-10.796-34.276-17.645-52.36-24.395c14.244-0.569,28.837-1.33,41.948-6.925c45.394-19.375,12.466-55.113-11.125-76.489
		c3.234-3.024-1.3-8.71-5.114-6.263c-0.385,0.247-0.77,0.493-1.156,0.74c-40.411-34.291-92.11-49.358-146.017-42.989
		c-44.758,5.288-88.59,33.85-102.357,76.765c-5.811,18.115-4.689,38.243,1.865,56.145c-9.823,0.719-19.672,1.208-29.549,1.515
		c-13.142,0.409-26.335,0.497-39.586,0.384c-7.012-0.06-14.04-0.177-21.085-0.333c-2.739-2.957-7.259-0.741-7.376,2.833
		c-0.543,1.77-0.079,3.854,1.659,4.749c1.084,2.316,2.183,4.63,3.297,6.94c9.807,20.328,20.767,40.412,32.52,60.161
		c24.959,41.944,53.499,82.375,82.184,120.411c0.579,0.767,1.158,1.533,1.74,2.299c-16.5,7.98-31.625,19.845-44.983,34.332
		c-0.118-4.536-0.237-9.073-0.354-13.609c-0.493-18.968-1.322-39.052-11.757-54.899c-10.434-15.848-34.165-24.501-48.916-12.567
		c-0.587-9.272-1.404-18.983-3.168-28.338c10.247-10.701,21.078-21.143,32.073-32.256c2.358-2.383-0.61-5.665-3.392-4.397
		c-11.614,5.296-22.566,12.519-32.726,21.234c-3.759-10.645-9.551-20.079-18.699-26.838c-15.045-11.117-36.288-11.6-53.414-4.073
		c-17.125,7.527-30.419,22.066-39.694,38.311c-30.493,53.403-20.329,128.188,17.344,175.612
		c4.623,5.818,10.256,11.653,17.598,12.792c0.493,0.076,0.991,0.119,1.492,0.13c0.622,4.728,1.449,9.353,2.494,13.852
		c0.906,3.903,6.823,2.961,6.873-0.93c0.073-5.627,0.187-11.204,0.364-16.739c1.795-1.7,3.012-3.847,3.208-6.188
		c2.079,25.461,9.275,50.497,21.049,73.17c7.694,14.818,21,30.4,37.531,28.058c3.896-0.552,7.205-1.923,10.06-3.866
		c-0.055,12.931,1.207,25.411,3.911,37.051c0.908,3.903,6.824,2.961,6.874-0.93c0.246-18.802,0.924-37.062,3.045-54.972
		c1.805-3.954,3.391-7.953,4.989-11.578c7.166,20.178,3.525,45.523,9.796,67.114c6.741,23.203,20.309,45.386,41.252,57.436
		c12.704,7.31,28.641,10.464,42.156,4.789c13.514-5.675,22.859-21.835,17.863-35.614c9.561,26.38,12.634,53.23,40.561,67.819
		c19.585,10.231,40.224,7.728,55.069-8.861c35.437-39.6,14.514-114.604-4.365-156.697c-3.979-8.87-9.287-18.265-18.453-21.507
		c-16.979-6.007-32.043,12.175-40.955,27.827c0.636-21.466,1.223-43.35-4.785-63.968c-0.901-3.091-1.978-6.156-3.224-9.161
		c2.451-8.578,5.048-17.252,7.636-26.147c22.551,24.572,46.631,47.696,72.529,68.764c-5.092,39.684,8.756,83.806,32.942,122.014
		c-0.486,21.552,3.336,43.207,11.295,63.245c3.156,7.946,8.345,16.685,16.849,17.573c11.04,1.153,18.045-11.221,22.007-21.59
		c5.667,15.741,22.854,26.357,39.437,24.792c5.079,2.48,10.201,4.651,15.342,6.477c3.896,1.385,5.862-4.311,2.697-6.396
		c-1.879-1.238-3.749-2.477-5.608-3.717c12.487-6.318,21.468-19.734,21.516-33.833c-0.046,13.367,41.567,17.182,60.83,1.97
		c8.648,2.126,17.147,3.415,25.253,3.756c3.75,0.158,3.999-5.021,0.837-6.186c-6.241-2.3-12.429-4.593-18.543-6.966
		c1.559-3.462,2.292-7.437,1.944-11.965c-2.497-32.441-40.925-35.811-61.728-19.008c-1.787-1.321-3.558-2.682-5.312-4.09
		c-4.353-3.496-8.4-7.198-12.241-11.041c-4.656-7.642-10.693-14.445-17.776-19.908c-6.847-8.272-13.527-16.7-20.826-24.79
		c38.04,18.652,78.452,32.39,119.55,37.897c57.046,7.645,115.306-3.106,167.303-27.135c15.858-7.328,31.135-15.891,45.616-25.545
		C1006.122,1698.84,1005.794,1697.607,1004.985,1697.228z M379.32,1403.58c-16.132-26.687-31.939-53.561-48.906-79.785
		c-0.327-0.502-0.653-1.004-0.978-1.506c1.004,0.157,2.01,0.308,3.017,0.455c17.348,2.541,35.182,3.747,53.258,3.705
		c11.236-0.026,22.566-0.536,33.932-1.506c8.765,15.229,21.882,27.524,38.143,33.47c-14.042-0.673-28.595,12.725-30.439,27.721
		c-1.41,11.477,2.267,22.599,8.216,32.701c-6.777-1.709-13.445-3.752-20.09-5.839c-11.261-3.536-22.451-7.194-33.976-9.551
		C380.691,1403.281,379.957,1403.349,379.32,1403.58z M432.777,1485.825c-16.77-23.065-31.982-47.01-46.752-71.205
		c10.932,5.7,23.821,9.62,36.661,12.521c7.342,1.659,14.666,2.985,21.6,4.122c1.174,1.447,2.375,2.862,3.592,4.24
		c22.152,25.102,51.051,44.195,82.83,54.726c-8.137-0.789-15.134,7.056-16.133,15.169c-0.881,7.16,1.71,14.216,5.104,20.661
		c-2.619-0.203-5.237-0.435-7.85-0.703c-8.954-0.921-17.799-2.522-26.62-4.219c-9.903-1.906-19.773-3.932-29.732-5.257
		C447.721,1506.004,440.157,1495.976,432.777,1485.825z M476.312,1587.525c-7.244-11.027-17.184-20.033-29.502-24.496
		c-20.191-7.316-46.456,1.416-53.869,21.573c-0.164-6.326-0.33-12.651-0.494-18.975c14.61-17.739,31.259-33.453,48.374-50.664
		c14.616,19.025,29.903,37.547,45.968,55.341C482.897,1575.713,479.411,1581.473,476.312,1587.525z M511.962,1581.032
		c-16.454-17.083-32.119-34.935-47.076-53.365c10.044,3.604,20.729,6.175,31.763,7.884c9.939,1.539,20.158,2.379,30.447,2.641
		c19.159,27.699,49.137,47.837,82.14,54.72c-0.397,1.286-0.698,2.566-0.911,3.837c-21.588-0.289-42.914-3.055-64.104-7.568
		C533.438,1586.884,522.691,1584.136,511.962,1581.032z M520.913,1590.169c10.744,3.845,21.899,6.87,33.323,9.098
		c17.484,3.411,35.596,4.957,53.81,4.726c1.637,18.375,20.668,34.297,38.727,43c16.671,8.035,34.243,14.186,52.275,18.347
		c-21.926,3.134-44.321,3.238-66.256,0.174c-0.844-0.118-1.687-0.24-2.53-0.367c-10.422-1.575-20.537-4.822-30.766-7.229
		c-9.751-7.104-19.237-14.469-28.427-22.033C553.571,1621.484,536.878,1606.191,520.913,1590.169z M571.021,1649.76
		c3.961,3.122,7.964,6.198,12.009,9.221c25.077,18.737,52.359,36.228,81.096,51.005c-0.619,0.711-0.946,1.691-0.694,2.737
		c1.33,5.533,3.237,10.97,5.644,16.279c-0.524,0.001-1.05,0.018-1.578,0.053c-7.895,0.528-15.833,5.88-17.332,13.648
		c-8.154-9.282-8.514-25.292-19.688-30.562c-7.441-3.509-16.736-0.016-22.126,6.198c-5.392,6.214-7.651,14.513-9.124,22.607
		c-0.16,0.876-0.312,1.754-0.456,2.633C583.901,1713.462,578.278,1682.966,571.021,1649.76z"/>
	<path style="fill:#6B9B3C;" d="M1917.389,1480.005c5.67-21.357-1.314-40.938-20.765-51.768
		c-46.43-25.853-114.988,11.067-151.894,38.747c-7.777,5.834-15.773,13.08-16.918,22.734c-2.122,17.885,18.929,28.577,36.159,33.826
		c-21.08,4.104-42.557,8.349-61.347,18.747c-2.761,1.528-5.46,3.216-8.068,5.05c-8.929-0.494-17.997-1.093-27.307-1.598
		c19.004-27.403,36.259-55.976,51.084-85.85c39.789-3.593,80.117-30.781,108.783-58.436c22.202-4.054,43.559-12.765,62.188-25.511
		c7.056-4.828,14.44-11.813,13.434-20.304c-1.306-11.023-14.917-15.134-25.905-16.716c14.112-8.995,20.684-28.108,15.5-43.942
		c1.295-5.463,2.29-10.982,2.949-16.541c0.497-4.191-5.588-4.333-6.873-0.93c-0.78,2.065-1.564,4.12-2.351,6.165
		c-8.91-10.794-23.976-16.603-37.743-13.547c13.067-2.901,7.597-44.44-11.543-59.834c0.175-8.926-0.427-17.527-1.852-25.542
		c-0.681-3.826-5.774-2.343-6.186,0.837c-0.853,6.57-1.715,13.061-2.671,19.482c-3.731-0.768-7.784-0.613-12.14,0.729
		c-31.071,9.568-25.931,47.747-5.002,64.36c-0.973,2.205-1.996,4.405-3.078,6.601c-2.408,4.887-5.073,9.536-7.914,14.029
		c-6.349,6.179-11.595,13.492-15.336,21.518c-6.589,8.556-13.371,16.976-19.673,25.908c10.55-43.976,15.12-89.474,9.828-133.394
		c-6.544-54.308-29.226-105.667-62.405-148.868c-10.651-13.866-22.378-26.894-35.005-38.905c-0.877-0.835-1.971-0.179-2.128,0.723
		c-0.062,0.352,0.018,0.742,0.311,1.095c0.108,0.132,0.218,0.264,0.326,0.396c12.254,14.842,23.927,30.253,34.588,46.255
		c31.294,46.974,53.864,99.045,56.77,156.777c0.832,16.531,0.407,33.193-1.102,49.846c-0.697,7.697-1.626,15.392-2.771,23.071
		c-0.847-9.306-2.183-18.516-3.716-27.224c-1.05-5.958-2.193-11.682-3.335-17.036c-8.569-40.161-27.354-88.336-58.154-116.771
		c-3.459-3.194-9.006,0.846-6.595,5.089c21.764,38.295,44.192,70.333,54.989,114.374c3.649,14.884,6.236,29.938,7.625,45.161
		c0.383,4.208,0.675,8.429,0.872,12.663c0.423,9.082-0.435,18.465-0.538,27.692c-5.078,20.128-11.452,39.958-18.811,59.234
		c0.055-9.562-0.755-19.408-2.189-29.144c-2.91-19.764-8.383-39.073-14.386-54.62c-2.608-6.754-5.72-13.891-9.294-21.15
		c-0.444-3.879-0.979-7.746-1.606-11.6c-5.047-30.973-22.478-66.271-53.785-68.433c-4.069-0.281-8.057,0.07-11.912,0.957
		c-1.208-0.645-2.425-1.258-3.651-1.838c-3.78-1.789-7.377,1.841-5.947,5.249c-14.025,6.793-25.314,20.536-30.7,35.547
		c-4.391,12.234-5.76,25.125-5.762,38.167c-4.098-3.87-8.317-7.56-12.653-11.052c-2.63-2.118-6.287,1.284-3.794,3.794
		c5.693,5.735,11.275,11.532,16.692,17.435c0.213,4.683,0.547,9.368,0.927,14.032c-3.978-19.874-25.481-35-46.314-33.719
		c-22.479,1.382-41.905,18.095-51.529,38.535c-6.002-3.949-12.183-7.58-18.533-10.848c-1.885-0.969-4.244,1.618-2.403,3.115
		c6.083,4.946,12.077,9.929,17.958,14.981c-7.282,20.364-6.918,42.947-3.659,64.433c-4.877-32.145-34.015-45.831-66.193-28.654
		c-8.104,4.326-15.043,10.396-20.848,17.506c-4.672-2.69-9.425-5.084-14.247-7.14c-3.094-1.318-7.009,2.44-3.958,5.13
		c3.999,3.526,8.139,6.862,12.341,10.12c-3.682,5.744-6.75,11.918-9.216,18.241c-7.01,17.985-9.667,37.32-12.272,56.445
		c-3.689-13.77-7.645-27.838-15.988-39.396c-28.894-40.021-56.511-0.021-72.17,27.697c-3.724-2.727-8.088,3.297-4.88,6.46
		c0.292,0.289,0.585,0.578,0.877,0.867c-24.554,46.968-27.872,100.712-9.794,151.895c15.01,42.496,52.517,78.967,97.41,82.951
		c18.959,1.682,38.355-3.847,54.379-14.19c2.864,9.427,5.506,18.929,7.979,28.498c3.289,12.732,6.277,25.585,9.082,38.54
		c1.481,6.844,2.911,13.717,4.308,20.616c-2.187,3.294,1.437,8.555,5.068,6.602c1.542-0.186,3.013-1.114,3.519-2.649
		c2.037-1.586,4.069-3.187,6.095-4.801c17.708-14.112,34.924-29.267,51.638-45.112c35.167-33.34,68.109-69.726,98.742-105.835
		c0.811-0.955,1.62-1.913,2.428-2.872c11.613,14.3,26.589,26.424,43.661,36.26c-4.501,1.139-9.002,2.279-13.504,3.419
		c-18.394,4.657-37.804,9.885-50.965,23.552c-13.162,13.667-16.381,38.72-1.494,50.483c-8.953,2.625-18.288,5.572-27.058,9.375
		c-12.67-7.636-25.22-15.921-38.495-24.286c-2.235-1.409-5.581,1.552-3.829,3.83c7.922,10.307,17.567,19.527,28.484,27.623
		c-9.644,6.028-17.652,13.788-22.264,24.272c-7.533,17.123-3.328,37.951,7.784,53c11.112,15.049,28.22,24.816,46.108,30.289
		c58.806,17.991,129.519-8.385,167.489-55.572c4.658-5.789,9.11-12.569,8.605-19.981c-0.035-0.51-0.106-1.018-0.209-1.522
		c4.509-1.655,8.881-3.489,13.088-5.51c3.736-1.795,1-7.185-2.697-6.396c-5.444,1.161-10.847,2.272-16.219,3.31
		c-2.058-1.388-4.431-2.113-6.769-1.788c24.379-7.631,47.215-20.163,66.74-36.637c12.761-10.767,25.034-27.176,19.11-42.786
		c-1.403-3.697-3.482-6.632-6.023-8.996c12.635-2.799,24.577-6.786,35.434-12.001c3.734-1.794,1-7.185-2.696-6.396
		c-18.318,3.906-36.166,7.252-53.977,9.123c-4.307-0.908-8.615-1.582-12.55-2.352c18.107-11.431,43.63-13.458,63.312-24.328
		c21.151-11.682,39.802-29.8,46.948-52.881c4.335-14.001,3.902-30.243-4.607-42.177c-8.51-11.933-26.331-17.491-38.673-9.586
		C1883.789,1519.364,1909.304,1510.458,1917.389,1480.005z M1668.368,1524.221c-13.04,19.805-27.006,39.011-41.69,57.653
		c1.296-10.565,1.442-21.541,0.673-32.672c-0.693-10.025-2.129-20.176-4.141-30.266c22.82-24.789,35.875-58.477,35.326-92.2
		c1.39,0.108,2.75,0.117,4.08,0.036c4.48,21.115,6.421,42.514,6.647,64.118C1669.379,1501.951,1669.043,1513.065,1668.368,1524.221z
		 M1732.463,1429.254c11.082-26.008,20.822-53.585,28.174-81.889c0.888,0.455,1.984,0.555,2.947,0.079
		c5.073-2.508,9.922-5.545,14.537-9.03c0.116,0.511,0.249,1.019,0.398,1.524c2.254,7.585,9.222,14.151,17.129,13.903
		c-7.26,9.997-22.798,13.872-25.479,25.932c-1.786,8.031,3.668,16.328,10.916,20.22c7.249,3.892,15.841,4.268,24.061,3.924
		c0.905-0.037,1.81-0.084,2.714-0.137c-26.101,21.115-54.658,33.215-85.425,47.689
		C1725.928,1444.142,1729.274,1436.738,1732.463,1429.254z M1710.219,1325.529c7.379,20.126,12.105,40.951,13.934,62.3
		c0.075,0.891,0.148,1.781,0.216,2.674c0.776,10.454-0.171,20.977-0.278,31.424c-3.617,8.366-7.402,16.602-11.33,24.682
		c-11.195,23.024-23.764,45.297-37.446,66.867c1.382-11.312,1.875-22.856,1.533-34.493c-0.525-17.793-3.003-35.801-7.233-53.526
		c17.559-5.646,28.9-27.71,33.415-47.238c4.153-17.964,6.285-36.391,6.389-54.829
		C1709.689,1324.101,1709.957,1324.814,1710.219,1325.529z M1525.545,1655.457c-0.931,11.771-1.95,23.504-1.706,35.311
		c0.016,0.777,0.212,1.427,0.529,1.955c-22.455,21.594-45.157,42.92-66.983,65.227c-0.412,0.421-0.822,0.843-1.234,1.265
		c-0.067-0.997-0.139-1.996-0.215-2.994c-1.329-17.496-4.073-35.172-8.095-52.807c-2.5-10.96-5.493-21.903-8.944-32.779
		c12.912-11.899,22.007-27.391,24.225-44.55c2.434,13.845,18.706,25.095,33.742,23.593c11.444-1.144,21.439-7.12,29.954-15.084
		C1526.608,1641.576,1526.093,1648.523,1525.545,1655.457z M1594.4,1620.729c-19.243,22.033-39.756,42.663-60.622,62.906
		c3.176-11.897,4.232-25.316,4.247-38.551c0.009-7.487-0.315-14.916-0.777-21.979c1.121-1.427,2.207-2.871,3.256-4.321
		c19.61-27.135,31.874-59.526,35.153-92.844c1.021,8.11,10.213,13.21,18.347,12.398c7.188-0.718,13.508-4.808,19.054-9.544
		c0.323,2.234,0.621,4.473,0.894,6.714c1.134,9.32,1.52,18.7,1.817,28.076c0.316,10.061,0.533,20.119,1.458,30.092
		C1609.777,1602.828,1602.159,1611.845,1594.4,1620.729z M1619.574,1608.2c15.339-18.441,30.051-37.438,43.883-57.036
		c6.103,2.622,12.464,4.773,19.031,6.476c-9.135,9.483-15.711,21.142-17.351,34.116c-2.693,21.307,11.606,45.006,32.899,47.801
		c-6.175,1.563-12.35,3.127-18.525,4.69C1659.035,1633.948,1640.119,1621.213,1619.574,1608.2z"/>
	<path style="fill:#426623;" d="M1765.206,1222.299c0.832,16.531,0.407,33.193-1.102,49.846c-0.697,7.697-1.626,15.392-2.771,23.071
		c-0.847-9.306-2.183-18.516-3.716-27.224c-1.05-5.958-2.193-11.682-3.335-17.036c-8.569-40.161-27.354-88.336-58.154-116.771
		c-3.459-3.194-9.006,0.846-6.595,5.089c21.764,38.295,44.192,70.333,54.989,114.374c3.649,14.884,6.236,29.938,7.625,45.161
		c0.383,4.208,0.675,8.429,0.872,12.663c0.423,9.082-0.435,18.465-0.538,27.692c-5.078,20.128-11.452,39.958-18.811,59.234
		c0.055-9.562-0.755-19.408-2.189-29.144c-2.91-19.764-8.383-39.073-14.386-54.62c-2.608-6.754-5.72-13.891-9.294-21.15
		c-15.157-30.792-38.63-63.78-67.304-79.076c-1.208-0.645-2.425-1.258-3.651-1.838c-3.78-1.789-7.377,1.841-5.947,5.249
		c0.193,0.457,0.474,0.911,0.859,1.345c10.784,12.208,24.397,21.747,35.328,33.973c18.403,20.584,32.592,44.456,42.336,70.253
		c0.269,0.712,0.537,1.425,0.799,2.141c7.379,20.126,12.105,40.951,13.934,62.3c0.075,0.891,0.148,1.781,0.216,2.674
		c0.776,10.454-0.171,20.977-0.278,31.424c-3.617,8.366-7.402,16.602-11.33,24.682c-11.195,23.024-23.764,45.297-37.446,66.867
		c1.382-11.312,1.875-22.856,1.533-34.493c-0.525-17.793-3.003-35.801-7.233-53.526c-12.158-50.953-38.798-99.556-75.181-133.925
		c-4.098-3.87-8.317-7.56-12.653-11.052c-2.63-2.118-6.287,1.284-3.794,3.794c5.693,5.735,11.275,11.532,16.692,17.435
		c23.749,25.882,44.305,53.799,56.975,87.431c4.683,12.431,8.278,24.981,10.962,37.633c4.48,21.115,6.421,42.514,6.647,64.118
		c0.116,11.06-0.22,22.174-0.896,33.33c-13.04,19.805-27.006,39.011-41.69,57.653c1.296-10.565,1.442-21.541,0.673-32.672
		c-0.693-10.025-2.129-20.176-4.141-30.266c-6.12-30.692-17.561-60.819-29.578-85.118c-21.532-43.542-54.44-86.004-95.869-113.262
		c-6.002-3.949-12.183-7.58-18.533-10.848c-1.885-0.969-4.244,1.618-2.403,3.115c6.083,4.946,12.077,9.929,17.958,14.981
		c34.224,29.399,64.613,61.182,86.206,102.171c16.206,30.764,27.095,64.387,32.068,98.818c0.323,2.234,0.621,4.473,0.894,6.714
		c1.134,9.32,1.52,18.7,1.817,28.076c0.316,10.061,0.533,20.119,1.458,30.092c-7.451,9.153-15.068,18.171-22.827,27.054
		c-19.243,22.033-39.756,42.663-60.622,62.906c3.176-11.897,4.232-25.316,4.247-38.551c0.009-7.487-0.315-14.916-0.777-21.979
		c-0.278-4.25-0.604-8.366-0.939-12.283c-3.237-37.88-13.447-75.015-30.029-109.229c-20.79-42.898-57.895-95.004-102.195-120.502
		c-4.672-2.69-9.425-5.084-14.247-7.14c-3.094-1.318-7.009,2.44-3.958,5.13c3.999,3.526,8.139,6.862,12.341,10.12
		c12.309,9.544,25.147,18.408,36.504,29.356c24.107,23.236,44.401,50.378,59.612,80.221c18.924,37.127,29.654,77.701,32.274,119.235
		c0.351,5.557,0.373,11.08,0.207,16.581c-0.211,6.983-0.726,13.93-1.274,20.863c-0.931,11.771-1.95,23.504-1.706,35.311
		c0.016,0.777,0.212,1.427,0.529,1.955c-22.455,21.594-45.157,42.92-66.983,65.227c-0.412,0.421-0.822,0.843-1.234,1.265
		c-0.067-0.997-0.139-1.996-0.215-2.994c-1.329-17.496-4.073-35.172-8.095-52.807c-2.5-10.96-5.493-21.903-8.944-32.779
		c-27.168-85.619-82.768-166.997-150.255-218.399c-0.022-0.017-0.044-0.032-0.067-0.048c-3.724-2.727-8.088,3.297-4.88,6.46
		c0.292,0.289,0.585,0.578,0.877,0.867c39.155,38.68,75.674,78.478,102.861,126.862c16.97,30.2,29.342,61.559,39.133,93.794
		c2.864,9.427,5.506,18.929,7.979,28.498c3.289,12.732,6.277,25.585,9.082,38.54c1.481,6.844,2.911,13.717,4.308,20.616
		c-2.187,3.294,1.437,8.555,5.068,6.602c1.542-0.186,3.013-1.114,3.519-2.649c2.037-1.586,4.069-3.187,6.095-4.801
		c17.708-14.112,34.924-29.267,51.638-45.112c35.167-33.34,68.109-69.726,98.742-105.835c0.811-0.955,1.62-1.913,2.428-2.872
		c11.613,14.3,26.589,26.424,43.661,36.26c48.719,28.07,114.494,37.504,167.883,25.678c12.635-2.799,24.577-6.786,35.434-12.001
		c3.734-1.794,1-7.185-2.696-6.396c-18.318,3.906-36.166,7.252-53.977,9.123c-25.253,2.652-50.436,2.337-76.79-3.563
		c-18.203-4.076-34.245-10.374-49.429-18.012c-20.476-10.299-39.392-23.034-59.936-36.047
		c15.339-18.441,30.051-37.438,43.883-57.036c6.103,2.622,12.464,4.773,19.031,6.476c76.365,19.812,180.299-20.764,223.366-81.885
		c2.411-3.422-2.666-6.705-5.497-4.241c-34.202,29.774-67.42,55.267-111.653,68.339c-32.73,9.672-62.578,9.235-94.146,7.487
		c-8.929-0.494-17.997-1.093-27.307-1.598c19.004-27.403,36.259-55.976,51.084-85.85c39.789-3.593,80.117-30.781,108.783-58.436
		c1.95-1.882,3.846-3.766,5.686-5.644c26.843-27.427,50.504-62.769,59.532-100.828c1.295-5.463,2.29-10.982,2.949-16.541
		c0.497-4.191-5.588-4.333-6.873-0.93c-0.78,2.065-1.564,4.12-2.351,6.165c-15.374,39.945-32.404,76.04-63.496,106.922
		c-4.81,4.777-9.713,9.142-14.704,13.18c-26.101,21.115-54.658,33.215-85.425,47.689c3.495-7.327,6.84-14.731,10.029-22.215
		c11.082-26.008,20.822-53.585,28.174-81.889c0.888,0.455,1.984,0.555,2.947,0.079c5.073-2.508,9.922-5.545,14.537-9.03
		c36.071-27.241,57.745-82.007,58.654-128.116c0.175-8.926-0.427-17.527-1.852-25.542c-0.681-3.826-5.774-2.343-6.186,0.837
		c-0.853,6.57-1.715,13.061-2.671,19.482c-3.34,22.42-7.838,43.989-17.143,65.089c-0.973,2.205-1.996,4.405-3.078,6.601
		c-2.408,4.887-5.073,9.536-7.914,14.029c-4.74,7.499-9.973,14.556-15.336,21.518c-6.589,8.556-13.371,16.976-19.673,25.908
		c10.55-43.976,15.12-89.474,9.828-133.394c-6.544-54.308-29.226-105.667-62.405-148.868
		c-10.651-13.866-22.378-26.894-35.005-38.905c-0.877-0.835-1.971-0.179-2.128,0.723c-0.062,0.352,0.018,0.742,0.311,1.095
		c0.108,0.132,0.218,0.264,0.326,0.396c12.254,14.842,23.927,30.253,34.588,46.255
		C1739.731,1112.497,1762.3,1164.567,1765.206,1222.299z"/>
	<path style="fill:#426623;" d="M1639.364,1767.553c-27.957-6.26-50.818-17.759-73.299-31.307
		c-12.67-7.636-25.22-15.921-38.495-24.286c-2.235-1.409-5.581,1.552-3.829,3.83c7.922,10.307,17.567,19.527,28.484,27.623
		c55.877,41.436,145.105,53.383,207.512,30.485c4.509-1.655,8.881-3.489,13.088-5.51c3.736-1.795,1-7.185-2.697-6.396
		c-5.444,1.161-10.847,2.272-16.219,3.31C1715.578,1772.711,1678.78,1776.378,1639.364,1767.553z"/>
	<path style="fill:#426623;" d="M719.393,694.037c10.334-12.826,21.687-24.906,33.829-36.259
		c5.881-5.498,11.947-10.828,18.175-15.986c-5.644,7.574-10.845,15.372-15.523,22.834c-2.619,4.178-5.077,8.252-7.353,12.122
		c-21.418,36.398-40.218,85.754-36.086,128.6c0.422,4.374,7.178,6.097,8.248,1.117c9.799-45.621,14.995-86.207,38.267-127.987
		c7.576-13.602,16.968-25.394,26.654-36.875c7.626-9.041,15.435-17.889,22.685-27.277c16.872-11.321,34.443-21.603,52.313-30.871
		c-6.322,7.069-12.188,14.889-17.511,22.939c-8.701,13.16-15.958,26.936-21.403,39.062c-4.586,10.213-8.804,21.768-12.244,34.012
		c-9.49,33.78-13.045,72.801-2.013,103.341c0.436,1.21,0.896,2.407,1.379,3.589c1.514,3.704,7.021,3.973,8.073,0.246
		c0.114-0.407,0.178-0.86,0.175-1.362c-0.091-19.06-4.298-37.762-3.626-57.001c0.869-24.899,6.135-49.419,14.997-72.632
		c1.961-5.135,4.095-10.207,6.398-15.204c7.855-17.037,18.289-31.011,29.372-44.568c6.483-7.928,13.186-15.715,19.728-23.887
		c2.881-1.341,5.765-2.656,8.651-3.945c28.531-12.747,58.009-23.175,88.053-31.695c-8.628,7.558-16.731,15.88-24.259,24.827
		c-11.469,13.631-21.605,28.71-30.235,44.739c-24.811,46.077-37.18,100.003-33.017,149.942c0.485,5.818,1.194,11.583,2.134,17.274
		c0.492,2.98,5.429,2.288,5.27-0.713c-0.427-8.13-0.727-16.231-0.828-24.3c-0.456-36.165,3.056-71.676,16.794-106.071
		c4.53-11.342,9.809-22.141,15.721-32.482c10.717-18.742,23.52-35.979,37.735-52.221c7.319-8.364,15.012-16.463,22.988-24.368
		c22.947-6.086,46.193-11.103,69.568-15.228c-7.929,7.018-15.269,15.122-22.025,23.914c-6.136,7.986-11.791,16.539-16.97,25.36
		c-11.917,20.297-21.316,42.012-28.259,61.497c-18.718,52.533-25.478,115.003-10.721,170.094c1.851,6.909,4.04,13.703,6.587,20.346
		c0.921,2.399,4.23,1.47,3.825-1.054c-1.22-7.615-2.331-15.196-3.306-22.748c-7.164-55.592-6.811-109.6,12.949-164.065
		c8.858-24.418,21.265-44.909,35.042-64.523c6.659-9.48,13.638-18.755,20.693-28.168c5.671-7.568,11.391-15.227,17.033-23.154
		c6.93-1.112,13.87-2.15,20.813-3.117c33.675-4.69,67.344-6.765,101.029-8.206c-10.106,6.828-19.552,16.246-28.055,25.753
		c-4.782,5.347-9.264,10.721-13.399,15.68c-0.328,0.392-0.651,0.788-0.976,1.182c-21.354,25.89-38.209,55.551-50.023,86.935
		c-19.502,51.813-30.843,125.986-12.006,182.34c1.78,5.322,3.827,10.485,6.163,15.456c1.335,2.838,6.471,1.547,6.087-1.648
		c-0.647-5.368-1.486-10.682-2.411-15.971c-3.218-18.407-7.478-36.514-8.324-55.563c-1.782-40.167,4.415-80.444,18.359-118.164
		c12.44-33.655,31.044-64.489,54.099-91.916c0.863-1.026,1.742-2.036,2.634-3.034c4.637-5.19,9.639-10.026,14.719-14.773
		c8.722-8.153,17.67-16.045,25.369-25.018c0.486-0.567,0.776-1.179,0.908-1.793c31.166-1.213,62.344-2.106,93.553-4.248
		c0.599-0.041,1.197-0.082,1.797-0.124c-0.628,0.805-1.25,1.613-1.87,2.425c-10.646,13.94-20.358,28.944-29.092,44.76
		c-5.435,9.84-10.491,19.996-15.16,30.402c-36.77,81.956-49.496,179.56-33.379,262.82c0.017,0.088,0.037,0.174,0.059,0.257
		c1.099,4.193,8.245,3.161,7.96-1.343c-0.03-0.486-0.061-0.972-0.091-1.458c-3.675-58.755-3.968-116.14,10.257-173.863
		c7.368-29.895,18.009-58.057,30.657-85.327c4.148-8.946,8.514-17.797,13.051-26.58c6.038-11.69,12.38-23.263,18.92-34.788
		c3.465-6.107,6.987-12.201,10.55-18.291c3.884-1.057,4.212-6.249,0.926-7.937c-1.278-1.267-3.229-1.813-4.806-0.72
		c-2.548-0.176-5.1-0.337-7.656-0.484c-22.496-1.292-45.324-1.476-68.246-0.807c-4.708,0.138-9.419,0.311-14.131,0.519
		c1.313-0.102,2.598-1.096,2.728-2.733c1.012-12.754-0.375-25.965-3.48-39.12c-7.549-31.992-25.271-63.653-43.466-87.614
		c-23.048-30.353-54.328-58.969-90.474-73.243c-4.34-1.714-8.749-3.223-13.224-4.502c-3.805-1.087-6.154,4.416-2.695,6.396
		c4.906,2.808,9.751,5.626,14.527,8.481c33.341,19.934,63.278,41.674,86.745,74.276c16.698,23.198,26.118,47.196,33.928,72.396
		c4.387,14.155,8.265,28.689,12.641,43.674c0.429,1.472,1.609,2.077,2.767,1.989c-45.096,1.986-90.369,7.074-134.03,13.367
		c0.963-18.595-3.008-38.071-9.86-56.865c-9.01-24.716-22.991-48.253-37.265-67.05c-18.463-24.314-42.207-47.511-69.501-63.117
		c-10.872-6.216-22.307-11.23-34.197-14.628c-3.805-1.088-6.154,4.416-2.695,6.396c16.338,9.35,32.002,18.818,46.66,29.383
		c20.471,14.756,38.978,31.654,54.612,53.374c10.899,15.142,18.697,30.625,24.97,46.561c8.421,21.39,14.097,43.595,20.836,66.886
		c-23.72,3.515-47.341,7.888-70.705,13.306c-2.769-6.017-6.056-11.855-9.798-17.497c-43.488-65.559-148.631-104.541-221.121-87.663
		c-3.901,0.909-2.962,6.825,0.931,6.874c45.126,0.568,87.134,3.616,128.671,23.166c30.79,14.492,53.039,34.896,75.525,57.275
		c6.359,6.328,12.738,12.815,19.333,19.371c-32.426,7.805-64.323,17.664-95.267,30.069c-32.388-23.633-77.557-32.933-122.578-30.354
		c-42.889,2.457-85.638,15.694-117.068,37.587c-4.603,3.206-8.966,6.595-13.048,10.166c-3.099,2.711,0.85,7.278,4.24,5.496
		c2-1.052,3.998-2.093,5.99-3.124c37.983-19.635,74.859-35.186,118.57-37.468c6.764-0.353,13.338-0.348,19.772-0.044
		c33.493,1.582,63.166,11.303,95.575,21.241c-10.866,4.549-21.609,9.422-32.208,14.641c-22.196,10.929-44.388,23.474-65.64,37.662
		c-0.274-0.914-0.952-1.706-2.027-2.003c-5.52-1.528-11.232-2.5-17.074-2.972c-45.014-3.631-97.712,22.651-129.065,56.452
		c-6.027,6.497-11.265,13.271-15.509,20.164c-1.96,3.184,2.34,6.068,4.946,3.817c5.046-4.357,10.058-8.664,15.105-12.864
		c17.367-14.45,35.147-27.614,56.121-37.107c1.205-0.545,2.416-1.082,3.641-1.603c6.284-2.668,12.6-4.79,18.946-6.569
		c8.144-2.283,16.333-4.001,24.562-5.581c10.821-2.077,21.709-3.916,32.643-6.485c-37.232,25.854-71.148,56.879-96.507,93.229
		c-31.204,44.728-48.382,98.166-52.37,152.396c-1.281,17.427-1.204,34.935,0.212,52.263c0.095,1.162,1.324,1.517,2.047,1.022
		c0.295-0.2,0.505-0.539,0.524-1.022c0.007-0.202,0.016-0.403,0.024-0.605c0.745-19.22,2.294-38.488,4.991-57.527
		C665.45,792.81,683.196,738.965,719.393,694.037z"/>
	<path style="fill:#426623;" d="M776.812,1740.367c-12.826-2.632-25.528-5.985-38.071-9.974c-7.867-2.502-15.669-5.257-23.401-8.241
		c9.135,1.2,18.268,1.924,26.935,2.347c5.979,0.292,11.738,0.441,17.122,0.504c41.186,0.484,92.212-7.12,126.822-30.956
		c3.731-2.569,1.572-9.136-3.236-7.675c-43.723,13.281-80.867,28.318-127.736,28.599c-13.988,0.084-27.922-0.741-41.756-2.56
		c-5.239-0.688-10.466-1.519-15.675-2.497c-7.703-1.447-15.362-3.868-23.056-5.796c-18.781-9.445-36.986-20.129-54.461-31.726
		c9.299,2.148,19.064,3.517,28.855,4.26c19.904,1.51,39.909,0.436,56.309-1.939c7.235-1.048,14.964-2.514,22.917-4.415
		c33.414-7.987,70.759-23.653,91.952-48.266c0.86-0.998,1.693-2.01,2.497-3.036c2.511-3.205,0.03-7.918-3.724-7.115
		c-0.44,0.094-0.897,0.263-1.365,0.52c-14.271,7.819-26.559,18.997-40.878,26.962c-22.602,12.572-47.264,21.004-72.772,25.206
		c-1.677,0.276-3.357,0.533-5.04,0.773c-21.926,3.134-44.321,3.238-66.256,0.174c-0.844-0.118-1.687-0.24-2.53-0.367
		c-10.422-1.575-20.537-4.822-30.766-7.229c-9.751-7.104-19.237-14.469-28.427-22.033c-17.497-14.4-34.191-29.693-50.155-45.715
		c10.744,3.845,21.899,6.87,33.323,9.098c17.484,3.411,35.596,4.957,53.81,4.726c52.316-0.662,105.487-15.979,147.134-43.867
		c4.859-3.253,9.56-6.676,14.085-10.268c2.396-1.902-0.702-5.812-3.251-4.214c-6.836,4.284-13.725,8.479-20.691,12.506
		c-28.169,16.28-57.641,29.791-90.268,35.158c-15.742,2.589-31.302,3.646-46.729,3.439c-21.588-0.289-42.914-3.055-64.104-7.568
		c-10.783-2.296-21.529-5.044-32.259-8.149c-16.454-17.083-32.119-34.935-47.076-53.365c10.044,3.604,20.729,6.175,31.763,7.884
		c9.939,1.539,20.158,2.379,30.447,2.641c31.164,0.792,62.942-3.712,89.344-10.099c47.316-11.446,96.005-34.173,131.759-68.643
		c5.153-4.97,10.04-10.183,14.614-15.641c1.665-1.988-0.811-4.372-2.805-2.805c-6.051,4.759-12.118,9.416-18.225,13.946
		c-38.874,28.84-79.363,52.492-127.882,63.933c-30.8,7.262-62.68,9.619-94.221,7.178c-2.619-0.203-5.237-0.435-7.85-0.703
		c-8.954-0.921-17.799-2.522-26.62-4.219c-9.903-1.906-19.773-3.932-29.732-5.257c-7.756-9.877-15.32-19.904-22.7-30.055
		c-16.77-23.065-31.982-47.01-46.752-71.205c10.932,5.7,23.821,9.62,36.661,12.521c7.342,1.659,14.666,2.985,21.6,4.122
		c2.804,0.459,5.544,0.889,8.195,1.296c38.843,5.965,78.81,4.34,117.073-4.594c46.731-10.912,105.307-35.511,140.185-73.254
		c3.82-4.133,7.356-8.423,10.56-12.872c1.875-2.603-1.864-6.354-4.469-4.469c-4.347,3.148-8.54,6.478-12.67,9.885
		c-11.976,9.881-23.423,20.415-36.555,29.054c-29.177,19.195-61.495,33.32-95.453,41.517c-40.304,9.729-81.892,10.657-122.7,3.756
		c-4.353-0.736-8.643-1.676-12.891-2.747c-6.777-1.709-13.445-3.752-20.09-5.839c-11.261-3.536-22.451-7.194-33.976-9.551
		c-0.806-0.165-1.541-0.097-2.178,0.134c-16.132-26.687-31.939-53.561-48.906-79.785c-0.327-0.502-0.653-1.004-0.978-1.506
		c1.004,0.157,2.01,0.308,3.017,0.455c17.348,2.541,35.182,3.747,53.258,3.705c11.236-0.026,22.566-0.536,33.932-1.506
		c89.471-7.633,181.063-43.844,246.034-98.366c0.058-0.049,0.113-0.099,0.168-0.149c3.234-3.024-1.3-8.71-5.114-6.263
		c-0.385,0.247-0.77,0.493-1.156,0.74c-46.303,29.65-93.053,56.495-146.195,72.355c-33.242,9.921-66.634,15.1-100.315,17.565
		c-9.823,0.719-19.672,1.208-29.549,1.515c-13.142,0.409-26.335,0.497-39.586,0.384c-7.012-0.06-14.04-0.177-21.085-0.333
		c-2.739-2.957-7.259-0.741-7.376,2.833c-0.543,1.77-0.079,3.854,1.659,4.749c1.084,2.316,2.183,4.63,3.297,6.94
		c9.807,20.328,20.767,40.412,32.52,60.161c24.959,41.944,53.499,82.375,82.184,120.411c0.579,0.767,1.158,1.533,1.74,2.299
		c-16.5,7.98-31.625,19.845-44.983,34.332c-38.082,41.299-61.8,103.891-62.032,158.46c-0.055,12.931,1.207,25.411,3.911,37.051
		c0.908,3.903,6.824,2.961,6.874-0.93c0.246-18.802,0.924-37.062,3.045-54.972c2.969-25.075,8.77-49.464,20.186-73.688
		c7.963-16.894,17.705-31.214,28.576-44.412c14.61-17.739,31.259-33.453,48.374-50.664c14.616,19.025,29.903,37.547,45.968,55.341
		c-3.89,5.41-7.376,11.17-10.476,17.221c-36,70.285-19.554,179.865,30.588,235.765c2.726,3.039,7.338-0.839,5.495-4.241
		c-21.541-39.777-39.19-78.111-42.157-124.016c-2.194-33.922,4.642-63.225,13.35-93.709c2.451-8.578,5.048-17.252,7.636-26.147
		c22.551,24.572,46.631,47.696,72.529,68.764c-5.092,39.684,8.756,83.806,32.942,122.014c22.987,36.314,55.31,67.283,89.588,84.021
		c5.079,2.48,10.201,4.651,15.342,6.477c3.896,1.385,5.862-4.311,2.697-6.396c-1.879-1.238-3.749-2.477-5.608-3.717
		c-35.521-23.719-67.019-48.31-90.26-85.407c-3.622-5.781-6.822-11.56-9.682-17.353c-14.871-30.118-20.494-60.614-27.751-93.819
		c3.961,3.122,7.964,6.198,12.009,9.221c25.077,18.737,52.359,36.228,81.096,51.005c-0.619,0.711-0.946,1.691-0.694,2.737
		c1.33,5.533,3.237,10.97,5.644,16.279c18.622,41.073,67.28,74.484,111.984,85.474c8.648,2.126,17.147,3.415,25.253,3.756
		c3.75,0.158,3.999-5.021,0.837-6.186c-6.241-2.3-12.429-4.593-18.543-6.966c-21.101-8.189-41.318-17.327-59.784-30.973
		c-1.787-1.321-3.558-2.682-5.312-4.09c-4.353-3.496-8.4-7.198-12.241-11.041c-6.339-6.342-12.117-13.071-17.776-19.908
		c-6.847-8.272-13.527-16.7-20.826-24.79c38.04,18.652,78.452,32.39,119.55,37.897c57.046,7.645,115.306-3.106,167.303-27.135
		c15.858-7.328,31.135-15.891,45.616-25.545c0.984-0.656,0.656-1.889-0.152-2.268c-0.323-0.152-0.722-0.167-1.146,0.047
		c-0.17,0.086-0.342,0.172-0.512,0.258c-17.218,8.694-34.837,16.671-52.79,23.523
		C895.141,1742.198,836.568,1752.629,776.812,1740.367z"/>
	<path style="fill:#426623;" d="M327.692,1434.705c10.247-10.701,21.078-21.143,32.073-32.256c2.358-2.383-0.61-5.665-3.392-4.397
		c-11.614,5.296-22.566,12.519-32.726,21.234c-52.652,45.16-83.985,130.438-75.372,195.935c0.622,4.728,1.449,9.353,2.494,13.852
		c0.906,3.903,6.823,2.961,6.873-0.93c0.073-5.627,0.187-11.204,0.364-16.739c1.249-38.856,5.736-75.573,22.869-111.922
		C293.081,1473.585,309.465,1453.737,327.692,1434.705z"/>
</g>
</svg>
